<mxfile host="app.diagrams.net" modified="2023-06-21T09:57:28.120Z" agent="Mozilla/5.0 (Windows NT 10.0; Win64; x64) AppleWebKit/537.36 (KHTML, like Gecko) Chrome/114.0.0.0 Safari/537.36" etag="3d2dElTjOU_fzkHCuiiR" version="21.2.7" type="device">
  <diagram id="lE_TnTFSzHgXY5gzvxl4" name="Page-1">
    <mxGraphModel dx="1629" dy="553" grid="1" gridSize="10" guides="1" tooltips="1" connect="1" arrows="1" fold="1" page="0" pageScale="1" pageWidth="827" pageHeight="1169" background="none" math="0" shadow="0">
      <root>
        <mxCell id="0" />
        <mxCell id="1" parent="0" />
        <mxCell id="node7" value="&lt;p style=&quot;margin:0px;margin-top:4px;text-align:center;&quot;&gt;&lt;b&gt;Availability&lt;/b&gt;&lt;/p&gt;&lt;hr size=&quot;1&quot;/&gt;&lt;p style=&quot;margin:0 0 0 4px;line-height:1.6;&quot;&gt; availabilityOrConstraint: integer&lt;/p&gt;&lt;hr size=&quot;1&quot;/&gt;&lt;p style=&quot;margin:0 0 0 4px;line-height:1.6;&quot;&gt; store: varchar(20)&lt;br/&gt; shiftType: varchar(8)&lt;br/&gt; day: varchar(2)&lt;br/&gt; month: varchar(2)&lt;br/&gt; year: varchar(4)&lt;br/&gt; employeeID: integer&lt;/p&gt;" style="verticalAlign=top;align=left;overflow=fill;fontSize=14;fontFamily=Helvetica;html=1;rounded=0;shadow=0;comic=0;labelBackgroundColor=none;strokeWidth=1;" parent="1" vertex="1">
          <mxGeometry x="-170" y="1040" width="206" height="220" as="geometry" />
        </mxCell>
        <mxCell id="node11" value="&lt;p style=&quot;margin:0px;margin-top:4px;text-align:center;&quot;&gt;&lt;b&gt;DeliveryForms&lt;/b&gt;&lt;/p&gt;&lt;hr size=&quot;1&quot;/&gt;&lt;p style=&quot;margin:0 0 0 4px;line-height:1.6;&quot;&gt; driver_id: text&lt;br/&gt; truck_license_plate: text&lt;br/&gt; dispatch_time: text&lt;br/&gt; termination_time: text&lt;/p&gt;&lt;hr size=&quot;1&quot;/&gt;&lt;p style=&quot;margin:0 0 0 4px;line-height:1.6;&quot;&gt; form_id: text&lt;/p&gt;" style="verticalAlign=top;align=left;overflow=fill;fontSize=14;fontFamily=Helvetica;html=1;rounded=0;shadow=0;comic=0;labelBackgroundColor=none;strokeWidth=1;" parent="1" vertex="1">
          <mxGeometry x="124.5" y="199" width="160" height="173" as="geometry" />
        </mxCell>
        <mxCell id="node12" value="&lt;p style=&quot;margin:0px;margin-top:4px;text-align:center;&quot;&gt;&lt;b&gt;DeliveryStops&lt;/b&gt;&lt;/p&gt;&lt;hr size=&quot;1&quot;/&gt;&lt;p style=&quot;margin:0 0 0 4px;line-height:1.6;&quot;&gt; origin_name: text&lt;br/&gt; destination_name: text&lt;br/&gt; truck_type: text&lt;br/&gt; status: text&lt;br/&gt; form_id: text&lt;/p&gt;&lt;hr size=&quot;1&quot;/&gt;&lt;p style=&quot;margin:0 0 0 4px;line-height:1.6;&quot;&gt; stop_id: integer&lt;/p&gt;" style="verticalAlign=top;align=left;overflow=fill;fontSize=14;fontFamily=Helvetica;html=1;rounded=0;shadow=0;comic=0;labelBackgroundColor=none;strokeWidth=1;" parent="1" vertex="1">
          <mxGeometry x="-180" y="352" width="156" height="190" as="geometry" />
        </mxCell>
        <mxCell id="node4" value="&lt;p style=&quot;margin:0px;margin-top:4px;text-align:center;&quot;&gt;&lt;b&gt;DriverLicenses&lt;/b&gt;&lt;/p&gt;&lt;hr size=&quot;1&quot;/&gt;&lt;p style=&quot;margin:0 0 0 4px;line-height:1.6;&quot;&gt; weight_allowed_tons: integer&lt;br/&gt; regular_allowed: integer&lt;br/&gt; refrigerated_allowed: integer&lt;/p&gt;&lt;hr size=&quot;1&quot;/&gt;&lt;p style=&quot;margin:0 0 0 4px;line-height:1.6;&quot;&gt; driver_id: integer&lt;/p&gt;" style="verticalAlign=top;align=left;overflow=fill;fontSize=14;fontFamily=Helvetica;html=1;rounded=0;shadow=0;comic=0;labelBackgroundColor=none;strokeWidth=1;" parent="1" vertex="1">
          <mxGeometry x="550.5" y="30" width="190" height="152" as="geometry" />
        </mxCell>
        <mxCell id="node0" value="&lt;p style=&quot;margin:0px;margin-top:4px;text-align:center;&quot;&gt;&lt;b&gt;Drivers&lt;/b&gt;&lt;/p&gt;&lt;hr size=&quot;1&quot;/&gt;&lt;p style=&quot;margin:0 0 0 4px;line-height:1.6;&quot;&gt; driver_name: text&lt;br/&gt; phone: text&lt;/p&gt;&lt;hr size=&quot;1&quot;/&gt;&lt;p style=&quot;margin:0 0 0 4px;line-height:1.6;&quot;&gt; driver_id: text&lt;/p&gt;" style="verticalAlign=top;align=left;overflow=fill;fontSize=14;fontFamily=Helvetica;html=1;rounded=0;shadow=0;comic=0;labelBackgroundColor=none;strokeWidth=1;" parent="1" vertex="1">
          <mxGeometry x="264.5" y="30" width="125" height="122" as="geometry" />
        </mxCell>
        <mxCell id="node5" value="&lt;p style=&quot;margin:0px;margin-top:4px;text-align:center;&quot;&gt;&lt;b&gt;Employees&lt;/b&gt;&lt;/p&gt;&lt;hr size=&quot;1&quot;/&gt;&lt;p style=&quot;margin:0 0 0 4px;line-height:1.6;&quot;&gt; name: varchar(200)&lt;br/&gt; password: varchar(200)&lt;br/&gt; salary: real&lt;br/&gt; termsOfEmployment: varchar(255)&lt;br/&gt; familyStatus: varchar(15)&lt;br/&gt; isStudent: integer&lt;br/&gt; bankAccount: integer&lt;br/&gt; employmentDate: date&lt;br/&gt; currentSalary: real&lt;/p&gt;&lt;hr size=&quot;1&quot;/&gt;&lt;p style=&quot;margin:0 0 0 4px;line-height:1.6;&quot;&gt; id: integer&lt;/p&gt;" style="verticalAlign=top;align=left;overflow=fill;fontSize=14;fontFamily=Helvetica;html=1;rounded=0;shadow=0;comic=0;labelBackgroundColor=none;strokeWidth=1;" parent="1" vertex="1">
          <mxGeometry x="202" y="560" width="220" height="280" as="geometry" />
        </mxCell>
        <mxCell id="node8" value="&lt;p style=&quot;margin:0px;margin-top:4px;text-align:center;&quot;&gt;&lt;b&gt;EmployeesInShift&lt;/b&gt;&lt;/p&gt;&lt;hr size=&quot;1&quot;/&gt;&lt;p style=&quot;margin:0 0 0 4px;line-height:1.6;&quot;&gt; job: varchar(30)&lt;/p&gt;&lt;hr size=&quot;1&quot;/&gt;&lt;p style=&quot;margin:0 0 0 4px;line-height:1.6;&quot;&gt; store: varchar(20)&lt;br/&gt; shiftType: varchar(8)&lt;br/&gt; day: varchar(2)&lt;br/&gt; month: varchar(2)&lt;br/&gt; year: varchar(4)&lt;br/&gt; employeeID: integer&lt;/p&gt;" style="verticalAlign=top;align=left;overflow=fill;fontSize=14;fontFamily=Helvetica;html=1;rounded=0;shadow=0;comic=0;labelBackgroundColor=none;strokeWidth=1;" parent="1" vertex="1">
          <mxGeometry x="223" y="1150" width="145" height="220" as="geometry" />
        </mxCell>
        <mxCell id="node3" value="&lt;p style=&quot;margin:0px;margin-top:4px;text-align:center;&quot;&gt;&lt;b&gt;EmployeeRoles&lt;/b&gt;&lt;/p&gt;&lt;hr size=&quot;1&quot;&gt;&lt;p style=&quot;margin:0 0 0 4px;line-height:1.6;&quot;&gt; id: integer&lt;br&gt; jobType: varchar(30)&lt;/p&gt;" style="verticalAlign=top;align=left;overflow=fill;fontSize=14;fontFamily=Helvetica;html=1;rounded=0;shadow=0;comic=0;labelBackgroundColor=none;strokeWidth=1;" parent="1" vertex="1">
          <mxGeometry x="585" y="630" width="141" height="82" as="geometry" />
        </mxCell>
        <mxCell id="node2" value="&lt;p style=&quot;margin:0px;margin-top:4px;text-align:center;&quot;&gt;&lt;b&gt;ShiftEvents&lt;/b&gt;&lt;/p&gt;&lt;hr size=&quot;1&quot;/&gt;&lt;p style=&quot;margin:0 0 0 4px;line-height:1.6;&quot;&gt; store: varchar(20)&lt;br/&gt; shiftType: varchar(8)&lt;br/&gt; day: varchar(2)&lt;br/&gt; month: varchar(2)&lt;br/&gt; year: varchar(4)&lt;br/&gt; employeeId: integer&lt;br/&gt; productId: integer&lt;/p&gt;" style="verticalAlign=top;align=left;overflow=fill;fontSize=14;fontFamily=Helvetica;html=1;rounded=0;shadow=0;comic=0;labelBackgroundColor=none;strokeWidth=1;" parent="1" vertex="1">
          <mxGeometry x="380" y="950" width="142" height="210" as="geometry" />
        </mxCell>
        <mxCell id="node9" value="&lt;p style=&quot;margin:0px;margin-top:4px;text-align:center;&quot;&gt;&lt;b&gt;Sites&lt;/b&gt;&lt;/p&gt;&lt;hr size=&quot;1&quot;/&gt;&lt;p style=&quot;margin:0 0 0 4px;line-height:1.6;&quot;&gt; address: text&lt;br/&gt; contact_name: text&lt;br/&gt; contact_phone: text&lt;br/&gt; delivery_zone: text&lt;/p&gt;&lt;hr size=&quot;1&quot;/&gt;&lt;p style=&quot;margin:0 0 0 4px;line-height:1.6;&quot;&gt; name: text&lt;/p&gt;" style="verticalAlign=top;align=left;overflow=fill;fontSize=14;fontFamily=Helvetica;html=1;rounded=0;shadow=0;comic=0;labelBackgroundColor=none;strokeWidth=1;" parent="1" vertex="1">
          <mxGeometry x="351.5" y="352" width="138" height="170" as="geometry" />
        </mxCell>
        <mxCell id="node10" value="&lt;p style=&quot;margin:0px;margin-top:4px;text-align:center;&quot;&gt;&lt;b&gt;EmployeeStores&lt;/b&gt;&lt;/p&gt;&lt;hr size=&quot;1&quot;&gt;&lt;p style=&quot;margin:0 0 0 4px;line-height:1.6;&quot;&gt; id: integer&lt;br&gt; store: varchar(30)&lt;/p&gt;" style="verticalAlign=top;align=left;overflow=fill;fontSize=14;fontFamily=Helvetica;html=1;rounded=0;shadow=0;comic=0;labelBackgroundColor=none;strokeWidth=1;" parent="1" vertex="1">
          <mxGeometry x="585" y="530" width="125" height="82" as="geometry" />
        </mxCell>
        <mxCell id="node13" value="&lt;p style=&quot;margin:0px;margin-top:4px;text-align:center;&quot;&gt;&lt;b&gt;Trucks&lt;/b&gt;&lt;/p&gt;&lt;hr size=&quot;1&quot;/&gt;&lt;p style=&quot;margin:0 0 0 4px;line-height:1.6;&quot;&gt; max_weight_tons: integer&lt;br/&gt; truck_type: text&lt;br/&gt; model: text&lt;/p&gt;&lt;hr size=&quot;1&quot;/&gt;&lt;p style=&quot;margin:0 0 0 4px;line-height:1.6;&quot;&gt; license_plate: text&lt;/p&gt;" style="verticalAlign=top;align=left;overflow=fill;fontSize=14;fontFamily=Helvetica;html=1;rounded=0;shadow=0;comic=0;labelBackgroundColor=none;strokeWidth=1;" parent="1" vertex="1">
          <mxGeometry x="-260" y="152" width="171" height="140" as="geometry" />
        </mxCell>
        <mxCell id="node1" value="&lt;p style=&quot;margin:0px;margin-top:4px;text-align:center;&quot;&gt;&lt;b&gt;Shifts&lt;/b&gt;&lt;/p&gt;&lt;hr size=&quot;1&quot;/&gt;&lt;p style=&quot;margin:0 0 0 4px;line-height:1.6;&quot;&gt; start: varchar(6)&lt;br/&gt; end: varchar(6)&lt;br/&gt; confirmed: integer&lt;/p&gt;&lt;hr size=&quot;1&quot;/&gt;&lt;p style=&quot;margin:0 0 0 4px;line-height:1.6;&quot;&gt; store: varchar(20)&lt;br/&gt; shiftType: varchar(8)&lt;br/&gt; day: varchar(2)&lt;br/&gt; month: varchar(2)&lt;br/&gt; year: varchar(4)&lt;/p&gt;" style="verticalAlign=top;align=left;overflow=fill;fontSize=14;fontFamily=Helvetica;html=1;rounded=0;shadow=0;comic=0;labelBackgroundColor=none;strokeWidth=1;" parent="1" vertex="1">
          <mxGeometry x="-160" y="658" width="142" height="237" as="geometry" />
        </mxCell>
        <mxCell id="BSmRTGBQJOk3SIV4wtqb-3" value="" style="endArrow=none;html=1;rounded=0;exitX=1;exitY=0.75;exitDx=0;exitDy=0;" edge="1" parent="1" source="node13">
          <mxGeometry relative="1" as="geometry">
            <mxPoint x="310" y="310" as="sourcePoint" />
            <mxPoint x="120" y="260" as="targetPoint" />
          </mxGeometry>
        </mxCell>
        <mxCell id="BSmRTGBQJOk3SIV4wtqb-4" value="0:N" style="resizable=0;html=1;whiteSpace=wrap;align=right;verticalAlign=bottom;" connectable="0" vertex="1" parent="BSmRTGBQJOk3SIV4wtqb-3">
          <mxGeometry x="1" relative="1" as="geometry" />
        </mxCell>
        <mxCell id="BSmRTGBQJOk3SIV4wtqb-5" value="1:1" style="resizable=0;html=1;whiteSpace=wrap;align=right;verticalAlign=bottom;" connectable="0" vertex="1" parent="1">
          <mxGeometry x="140.00042094118035" y="310.0037128983964" as="geometry">
            <mxPoint x="-203" y="-54" as="offset" />
          </mxGeometry>
        </mxCell>
        <mxCell id="BSmRTGBQJOk3SIV4wtqb-6" value="" style="endArrow=none;html=1;rounded=0;exitX=0.992;exitY=0.397;exitDx=0;exitDy=0;exitPerimeter=0;entryX=0.004;entryY=0.95;entryDx=0;entryDy=0;entryPerimeter=0;" edge="1" parent="1" source="node12" target="node11">
          <mxGeometry relative="1" as="geometry">
            <mxPoint x="310" y="310" as="sourcePoint" />
            <mxPoint x="470" y="310" as="targetPoint" />
          </mxGeometry>
        </mxCell>
        <mxCell id="BSmRTGBQJOk3SIV4wtqb-7" value="1:N" style="resizable=0;html=1;whiteSpace=wrap;align=left;verticalAlign=bottom;" connectable="0" vertex="1" parent="BSmRTGBQJOk3SIV4wtqb-6">
          <mxGeometry x="-1" relative="1" as="geometry">
            <mxPoint y="-7" as="offset" />
          </mxGeometry>
        </mxCell>
        <mxCell id="BSmRTGBQJOk3SIV4wtqb-8" value="0:1" style="resizable=0;html=1;whiteSpace=wrap;align=right;verticalAlign=bottom;" connectable="0" vertex="1" parent="BSmRTGBQJOk3SIV4wtqb-6">
          <mxGeometry x="1" relative="1" as="geometry">
            <mxPoint x="-5" y="6" as="offset" />
          </mxGeometry>
        </mxCell>
        <mxCell id="BSmRTGBQJOk3SIV4wtqb-9" value="" style="endArrow=none;html=1;rounded=0;" edge="1" parent="1">
          <mxGeometry relative="1" as="geometry">
            <mxPoint x="-20" y="480" as="sourcePoint" />
            <mxPoint x="350" y="480" as="targetPoint" />
          </mxGeometry>
        </mxCell>
        <mxCell id="BSmRTGBQJOk3SIV4wtqb-10" value="0:N" style="resizable=0;html=1;whiteSpace=wrap;align=left;verticalAlign=bottom;" connectable="0" vertex="1" parent="BSmRTGBQJOk3SIV4wtqb-9">
          <mxGeometry x="-1" relative="1" as="geometry" />
        </mxCell>
        <mxCell id="BSmRTGBQJOk3SIV4wtqb-11" value="2:2" style="resizable=0;html=1;whiteSpace=wrap;align=right;verticalAlign=bottom;" connectable="0" vertex="1" parent="BSmRTGBQJOk3SIV4wtqb-9">
          <mxGeometry x="1" relative="1" as="geometry">
            <mxPoint x="-5" as="offset" />
          </mxGeometry>
        </mxCell>
        <mxCell id="BSmRTGBQJOk3SIV4wtqb-16" value="" style="endArrow=none;html=1;rounded=0;exitX=0.349;exitY=-0.007;exitDx=0;exitDy=0;exitPerimeter=0;entryX=0.004;entryY=0.95;entryDx=0;entryDy=0;entryPerimeter=0;" edge="1" parent="1" source="node11">
          <mxGeometry relative="1" as="geometry">
            <mxPoint x="114.5" y="164" as="sourcePoint" />
            <mxPoint x="264.5" y="100" as="targetPoint" />
          </mxGeometry>
        </mxCell>
        <mxCell id="BSmRTGBQJOk3SIV4wtqb-17" value="0:N" style="resizable=0;html=1;whiteSpace=wrap;align=left;verticalAlign=bottom;" connectable="0" vertex="1" parent="BSmRTGBQJOk3SIV4wtqb-16">
          <mxGeometry x="-1" relative="1" as="geometry">
            <mxPoint x="-20" as="offset" />
          </mxGeometry>
        </mxCell>
        <mxCell id="BSmRTGBQJOk3SIV4wtqb-18" value="1:1" style="resizable=0;html=1;whiteSpace=wrap;align=right;verticalAlign=bottom;" connectable="0" vertex="1" parent="BSmRTGBQJOk3SIV4wtqb-16">
          <mxGeometry x="1" relative="1" as="geometry">
            <mxPoint x="-5" y="6" as="offset" />
          </mxGeometry>
        </mxCell>
        <mxCell id="BSmRTGBQJOk3SIV4wtqb-19" value="" style="endArrow=none;html=1;rounded=0;entryX=-0.007;entryY=0.451;entryDx=0;entryDy=0;entryPerimeter=0;" edge="1" parent="1" target="node4">
          <mxGeometry relative="1" as="geometry">
            <mxPoint x="390" y="100" as="sourcePoint" />
            <mxPoint x="384.5" y="212" as="targetPoint" />
          </mxGeometry>
        </mxCell>
        <mxCell id="BSmRTGBQJOk3SIV4wtqb-20" value="1:1" style="resizable=0;html=1;whiteSpace=wrap;align=left;verticalAlign=bottom;" connectable="0" vertex="1" parent="BSmRTGBQJOk3SIV4wtqb-19">
          <mxGeometry x="-1" relative="1" as="geometry">
            <mxPoint x="1" as="offset" />
          </mxGeometry>
        </mxCell>
        <mxCell id="BSmRTGBQJOk3SIV4wtqb-21" value="1:1" style="resizable=0;html=1;whiteSpace=wrap;align=right;verticalAlign=bottom;" connectable="0" vertex="1" parent="BSmRTGBQJOk3SIV4wtqb-19">
          <mxGeometry x="1" relative="1" as="geometry">
            <mxPoint x="-5" y="2" as="offset" />
          </mxGeometry>
        </mxCell>
        <mxCell id="BSmRTGBQJOk3SIV4wtqb-24" value="" style="endArrow=none;html=1;rounded=0;exitX=1;exitY=0.75;exitDx=0;exitDy=0;" edge="1" parent="1" target="node10">
          <mxGeometry relative="1" as="geometry">
            <mxPoint x="422" y="593" as="sourcePoint" />
            <mxPoint x="584" y="589" as="targetPoint" />
          </mxGeometry>
        </mxCell>
        <mxCell id="BSmRTGBQJOk3SIV4wtqb-25" value="1:N" style="resizable=0;html=1;whiteSpace=wrap;align=left;verticalAlign=bottom;" connectable="0" vertex="1" parent="BSmRTGBQJOk3SIV4wtqb-24">
          <mxGeometry x="-1" relative="1" as="geometry">
            <mxPoint x="1" as="offset" />
          </mxGeometry>
        </mxCell>
        <mxCell id="BSmRTGBQJOk3SIV4wtqb-26" value="0:N" style="resizable=0;html=1;whiteSpace=wrap;align=right;verticalAlign=bottom;" connectable="0" vertex="1" parent="BSmRTGBQJOk3SIV4wtqb-24">
          <mxGeometry x="1" relative="1" as="geometry">
            <mxPoint x="-5" y="-2" as="offset" />
          </mxGeometry>
        </mxCell>
        <mxCell id="BSmRTGBQJOk3SIV4wtqb-27" value="" style="endArrow=none;html=1;rounded=0;exitX=1;exitY=0.344;exitDx=0;exitDy=0;entryX=0;entryY=0.5;entryDx=0;entryDy=0;exitPerimeter=0;" edge="1" parent="1" source="node5" target="node3">
          <mxGeometry relative="1" as="geometry">
            <mxPoint x="432" y="659" as="sourcePoint" />
            <mxPoint x="580" y="658" as="targetPoint" />
          </mxGeometry>
        </mxCell>
        <mxCell id="BSmRTGBQJOk3SIV4wtqb-28" value="0:N" style="resizable=0;html=1;whiteSpace=wrap;align=left;verticalAlign=bottom;" connectable="0" vertex="1" parent="BSmRTGBQJOk3SIV4wtqb-27">
          <mxGeometry x="-1" relative="1" as="geometry">
            <mxPoint x="1" as="offset" />
          </mxGeometry>
        </mxCell>
        <mxCell id="BSmRTGBQJOk3SIV4wtqb-29" value="0:N" style="resizable=0;html=1;whiteSpace=wrap;align=right;verticalAlign=bottom;" connectable="0" vertex="1" parent="BSmRTGBQJOk3SIV4wtqb-27">
          <mxGeometry x="1" relative="1" as="geometry">
            <mxPoint x="-5" y="-2" as="offset" />
          </mxGeometry>
        </mxCell>
        <mxCell id="BSmRTGBQJOk3SIV4wtqb-30" value="" style="endArrow=none;html=1;rounded=0;exitX=0.374;exitY=-0.019;exitDx=0;exitDy=0;entryX=0.36;entryY=1.009;entryDx=0;entryDy=0;exitPerimeter=0;entryPerimeter=0;" edge="1" parent="1" source="node8" target="node5">
          <mxGeometry relative="1" as="geometry">
            <mxPoint x="202" y="1040" as="sourcePoint" />
            <mxPoint x="490" y="1065" as="targetPoint" />
          </mxGeometry>
        </mxCell>
        <mxCell id="BSmRTGBQJOk3SIV4wtqb-31" value="0:N" style="resizable=0;html=1;whiteSpace=wrap;align=left;verticalAlign=bottom;" connectable="0" vertex="1" parent="BSmRTGBQJOk3SIV4wtqb-30">
          <mxGeometry x="-1" relative="1" as="geometry">
            <mxPoint x="1" as="offset" />
          </mxGeometry>
        </mxCell>
        <mxCell id="BSmRTGBQJOk3SIV4wtqb-32" value="0:N" style="resizable=0;html=1;whiteSpace=wrap;align=right;verticalAlign=bottom;" connectable="0" vertex="1" parent="BSmRTGBQJOk3SIV4wtqb-30">
          <mxGeometry x="1" relative="1" as="geometry">
            <mxPoint x="-5" y="17" as="offset" />
          </mxGeometry>
        </mxCell>
        <mxCell id="BSmRTGBQJOk3SIV4wtqb-33" value="" style="endArrow=none;html=1;rounded=0;entryX=0.956;entryY=1.015;entryDx=0;entryDy=0;entryPerimeter=0;" edge="1" parent="1" source="node2" target="node5">
          <mxGeometry relative="1" as="geometry">
            <mxPoint x="287" y="1156" as="sourcePoint" />
            <mxPoint x="291" y="853" as="targetPoint" />
          </mxGeometry>
        </mxCell>
        <mxCell id="BSmRTGBQJOk3SIV4wtqb-34" value="0:N" style="resizable=0;html=1;whiteSpace=wrap;align=left;verticalAlign=bottom;" connectable="0" vertex="1" parent="BSmRTGBQJOk3SIV4wtqb-33">
          <mxGeometry x="-1" relative="1" as="geometry">
            <mxPoint x="-4" y="-7" as="offset" />
          </mxGeometry>
        </mxCell>
        <mxCell id="BSmRTGBQJOk3SIV4wtqb-35" value="1:1" style="resizable=0;html=1;whiteSpace=wrap;align=right;verticalAlign=bottom;" connectable="0" vertex="1" parent="BSmRTGBQJOk3SIV4wtqb-33">
          <mxGeometry x="1" relative="1" as="geometry">
            <mxPoint x="-5" y="17" as="offset" />
          </mxGeometry>
        </mxCell>
        <mxCell id="BSmRTGBQJOk3SIV4wtqb-36" value="" style="endArrow=none;html=1;rounded=0;exitX=0;exitY=0.5;exitDx=0;exitDy=0;entryX=1.011;entryY=0.424;entryDx=0;entryDy=0;entryPerimeter=0;" edge="1" parent="1" source="node2" target="node1">
          <mxGeometry relative="1" as="geometry">
            <mxPoint x="287" y="1156" as="sourcePoint" />
            <mxPoint x="291" y="853" as="targetPoint" />
          </mxGeometry>
        </mxCell>
        <mxCell id="BSmRTGBQJOk3SIV4wtqb-37" value="0:N" style="resizable=0;html=1;whiteSpace=wrap;align=left;verticalAlign=bottom;" connectable="0" vertex="1" parent="BSmRTGBQJOk3SIV4wtqb-36">
          <mxGeometry x="-1" relative="1" as="geometry">
            <mxPoint x="-30" y="-15" as="offset" />
          </mxGeometry>
        </mxCell>
        <mxCell id="BSmRTGBQJOk3SIV4wtqb-38" value="1:1" style="resizable=0;html=1;whiteSpace=wrap;align=right;verticalAlign=bottom;" connectable="0" vertex="1" parent="BSmRTGBQJOk3SIV4wtqb-36">
          <mxGeometry x="1" relative="1" as="geometry">
            <mxPoint x="27" y="2" as="offset" />
          </mxGeometry>
        </mxCell>
        <mxCell id="BSmRTGBQJOk3SIV4wtqb-39" value="" style="endArrow=none;html=1;rounded=0;entryX=0.059;entryY=-0.008;entryDx=0;entryDy=0;entryPerimeter=0;" edge="1" parent="1" target="node8">
          <mxGeometry relative="1" as="geometry">
            <mxPoint x="-20" y="870" as="sourcePoint" />
            <mxPoint y="930" as="targetPoint" />
            <Array as="points" />
          </mxGeometry>
        </mxCell>
        <mxCell id="BSmRTGBQJOk3SIV4wtqb-40" value="1:1" style="resizable=0;html=1;whiteSpace=wrap;align=left;verticalAlign=bottom;" connectable="0" vertex="1" parent="BSmRTGBQJOk3SIV4wtqb-39">
          <mxGeometry x="-1" relative="1" as="geometry">
            <mxPoint x="3" y="1" as="offset" />
          </mxGeometry>
        </mxCell>
        <mxCell id="BSmRTGBQJOk3SIV4wtqb-41" value="1:1" style="resizable=0;html=1;whiteSpace=wrap;align=right;verticalAlign=bottom;" connectable="0" vertex="1" parent="BSmRTGBQJOk3SIV4wtqb-39">
          <mxGeometry x="1" relative="1" as="geometry">
            <mxPoint x="27" y="2" as="offset" />
          </mxGeometry>
        </mxCell>
        <mxCell id="BSmRTGBQJOk3SIV4wtqb-45" value="" style="endArrow=none;html=1;rounded=0;exitX=0.25;exitY=1;exitDx=0;exitDy=0;entryX=0.25;entryY=0;entryDx=0;entryDy=0;" edge="1" parent="1" source="node1" target="node7">
          <mxGeometry relative="1" as="geometry">
            <mxPoint x="-120.5" y="910" as="sourcePoint" />
            <mxPoint x="124.5" y="1179" as="targetPoint" />
            <Array as="points" />
          </mxGeometry>
        </mxCell>
        <mxCell id="BSmRTGBQJOk3SIV4wtqb-46" value="1:1" style="resizable=0;html=1;whiteSpace=wrap;align=left;verticalAlign=bottom;" connectable="0" vertex="1" parent="BSmRTGBQJOk3SIV4wtqb-45">
          <mxGeometry x="-1" relative="1" as="geometry">
            <mxPoint x="3" y="25" as="offset" />
          </mxGeometry>
        </mxCell>
        <mxCell id="BSmRTGBQJOk3SIV4wtqb-47" value="1:1" style="resizable=0;html=1;whiteSpace=wrap;align=right;verticalAlign=bottom;" connectable="0" vertex="1" parent="BSmRTGBQJOk3SIV4wtqb-45">
          <mxGeometry x="1" relative="1" as="geometry">
            <mxPoint x="27" y="2" as="offset" />
          </mxGeometry>
        </mxCell>
        <mxCell id="BSmRTGBQJOk3SIV4wtqb-48" value="" style="endArrow=none;html=1;rounded=0;exitX=0;exitY=1;exitDx=0;exitDy=0;entryX=1.019;entryY=0.091;entryDx=0;entryDy=0;entryPerimeter=0;" edge="1" parent="1" source="node5" target="node7">
          <mxGeometry relative="1" as="geometry">
            <mxPoint x="70" y="940" as="sourcePoint" />
            <mxPoint x="76" y="1085" as="targetPoint" />
            <Array as="points" />
          </mxGeometry>
        </mxCell>
        <mxCell id="BSmRTGBQJOk3SIV4wtqb-49" value="0:N" style="resizable=0;html=1;whiteSpace=wrap;align=left;verticalAlign=bottom;" connectable="0" vertex="1" parent="BSmRTGBQJOk3SIV4wtqb-48">
          <mxGeometry x="-1" relative="1" as="geometry">
            <mxPoint x="3" y="25" as="offset" />
          </mxGeometry>
        </mxCell>
        <mxCell id="BSmRTGBQJOk3SIV4wtqb-50" value="0:N" style="resizable=0;html=1;whiteSpace=wrap;align=right;verticalAlign=bottom;" connectable="0" vertex="1" parent="BSmRTGBQJOk3SIV4wtqb-48">
          <mxGeometry x="1" relative="1" as="geometry">
            <mxPoint x="27" y="2" as="offset" />
          </mxGeometry>
        </mxCell>
      </root>
    </mxGraphModel>
  </diagram>
</mxfile>
